<?xml version="1.0" encoding="UTF-8" standalone="no"?>
<!DOCTYPE svg PUBLIC "-//W3C//DTD SVG 1.1//EN" "http://www.w3.org/Graphics/SVG/1.1/DTD/svg11.dtd">
<svg width="100%" height="100%" viewBox="0 0 830 712" version="1.1" xmlns="http://www.w3.org/2000/svg" xmlns:xlink="http://www.w3.org/1999/xlink" xml:space="preserve" xmlns:serif="http://www.serif.com/" style="fill-rule:evenodd;clip-rule:evenodd;stroke-linejoin:round;stroke-miterlimit:2;">
    <g transform="matrix(1,0,0,1,-139,-170)">
        <g transform="matrix(1.10667,0,0,1.42286,277.333,169.327)">
            <path d="M625,486.126C625,489.984 623.029,493.685 619.521,496.413C616.014,499.141 611.256,500.674 606.295,500.674C502.432,500.674 -2.432,500.674 -106.295,500.674C-111.256,500.674 -116.014,499.141 -119.521,496.413C-123.029,493.685 -125,489.984 -125,486.126C-125,413.21 -125,88.138 -125,15.222C-125,11.364 -123.029,7.663 -119.521,4.935C-116.014,2.207 -111.256,0.674 -106.295,0.674C-2.432,0.674 502.432,0.674 606.295,0.674C611.256,0.674 616.014,2.207 619.521,4.935C623.029,7.663 625,11.364 625,15.222C625,88.138 625,413.21 625,486.126Z" style="fill:rgb(252,233,208);fill-rule:nonzero;"/>
            <clipPath id="_clip1">
                <path d="M625,486.126C625,489.984 623.029,493.685 619.521,496.413C616.014,499.141 611.256,500.674 606.295,500.674C502.432,500.674 -2.432,500.674 -106.295,500.674C-111.256,500.674 -116.014,499.141 -119.521,496.413C-123.029,493.685 -125,489.984 -125,486.126C-125,413.21 -125,88.138 -125,15.222C-125,11.364 -123.029,7.663 -119.521,4.935C-116.014,2.207 -111.256,0.674 -106.295,0.674C-2.432,0.674 502.432,0.674 606.295,0.674C611.256,0.674 616.014,2.207 619.521,4.935C623.029,7.663 625,11.364 625,15.222C625,88.138 625,413.21 625,486.126Z" clip-rule="nonzero"/>
            </clipPath>
            <g clip-path="url(#_clip1)">
                <g transform="matrix(1.28571,0,0,1,-71.4282,0)">
                    <rect x="-41.666" y="0.674" width="83.332" height="83.375" style="fill:rgb(247,182,67);fill-rule:nonzero;"/>
                    <rect x="41.666" y="0.674" width="83.334" height="83.375" style="fill:rgb(246,241,225);fill-rule:nonzero;"/>
                    <rect x="125" y="0.674" width="83.333" height="83.375" style="fill:rgb(247,128,119);fill-rule:nonzero;"/>
                    <rect x="208.333" y="0.674" width="83.334" height="83.375" style="fill:rgb(246,241,225);fill-rule:nonzero;"/>
                    <rect x="291.667" y="0.674" width="83.333" height="83.375" style="fill:rgb(247,128,119);fill-rule:nonzero;"/>
                    <rect x="375" y="0.674" width="83.333" height="83.375" style="fill:rgb(101,187,229);fill-rule:nonzero;"/>
                    <rect x="458.333" y="0.674" width="83.334" height="83.375" style="fill:rgb(247,128,119);fill-rule:nonzero;"/>
                    <rect x="-41.666" y="84.049" width="83.332" height="83.375" style="fill:rgb(246,241,225);fill-rule:nonzero;"/>
                    <rect x="41.666" y="84.049" width="83.334" height="83.375" style="fill:rgb(42,22,51);fill-rule:nonzero;"/>
                    <rect x="125" y="84.049" width="83.333" height="83.375" style="fill:rgb(246,241,225);fill-rule:nonzero;"/>
                    <rect x="208.333" y="84.049" width="83.334" height="83.375" style="fill:rgb(247,128,119);fill-rule:nonzero;"/>
                    <rect x="291.667" y="84.049" width="83.333" height="83.375" style="fill:rgb(246,241,225);fill-rule:nonzero;"/>
                    <rect x="375" y="84.049" width="83.333" height="83.375" style="fill:rgb(247,128,119);fill-rule:nonzero;"/>
                    <rect x="458.333" y="84.049" width="83.334" height="83.375" style="fill:rgb(246,241,225);fill-rule:nonzero;"/>
                    <rect x="-41.666" y="167.424" width="83.332" height="83.375" style="fill:rgb(42,22,51);fill-rule:nonzero;"/>
                    <rect x="41.666" y="167.424" width="83.334" height="83.375" style="fill:rgb(246,241,225);fill-rule:nonzero;"/>
                    <rect x="125" y="167.424" width="83.333" height="83.375" style="fill:rgb(247,128,119);fill-rule:nonzero;"/>
                    <rect x="208.333" y="167.424" width="83.334" height="83.375" style="fill:rgb(246,241,225);fill-rule:nonzero;"/>
                    <rect x="291.667" y="167.424" width="83.333" height="83.375" style="fill:rgb(42,22,51);fill-rule:nonzero;"/>
                    <rect x="375" y="167.424" width="83.333" height="83.375" style="fill:rgb(246,241,225);fill-rule:nonzero;"/>
                    <rect x="458.333" y="167.424" width="83.334" height="83.375" style="fill:rgb(247,128,119);fill-rule:nonzero;"/>
                    <rect x="-41.666" y="250.799" width="83.332" height="83.375" style="fill:rgb(246,241,225);fill-rule:nonzero;"/>
                    <rect x="41.666" y="250.799" width="83.334" height="83.375" style="fill:rgb(247,128,119);fill-rule:nonzero;"/>
                    <rect x="83.333" y="250.799" width="41.667" height="41.688" style="fill:rgb(247,182,67);fill-rule:nonzero;"/>
                    <rect x="41.531" y="292.601" width="41.666" height="41.688" style="fill:rgb(42,22,51);fill-rule:nonzero;"/>
                    <rect x="125" y="250.799" width="83.333" height="83.375" style="fill:rgb(42,22,51);fill-rule:nonzero;"/>
                    <rect x="208.333" y="250.799" width="83.334" height="83.375" style="fill:rgb(246,241,225);fill-rule:nonzero;"/>
                    <rect x="291.667" y="250.799" width="83.333" height="83.375" style="fill:rgb(246,241,225);fill-rule:nonzero;"/>
                    <rect x="375" y="250.799" width="83.333" height="83.375" style="fill:rgb(101,187,229);fill-rule:nonzero;"/>
                    <rect x="458.333" y="250.799" width="83.334" height="83.375" style="fill:rgb(246,241,225);fill-rule:nonzero;"/>
                    <rect x="-41.666" y="334.174" width="83.332" height="83.375" style="fill:rgb(42,22,51);fill-rule:nonzero;"/>
                    <rect x="41.666" y="334.174" width="83.334" height="83.375" style="fill:rgb(246,241,225);fill-rule:nonzero;"/>
                    <rect x="125" y="334.174" width="83.333" height="83.375" style="fill:rgb(247,182,67);fill-rule:nonzero;"/>
                    <rect x="208.333" y="334.174" width="83.334" height="83.375" style="fill:rgb(246,241,225);fill-rule:nonzero;"/>
                    <rect x="291.667" y="334.174" width="83.333" height="83.375" style="fill:rgb(42,22,51);fill-rule:nonzero;"/>
                    <rect x="375" y="334.174" width="83.333" height="83.375" style="fill:rgb(246,241,225);fill-rule:nonzero;"/>
                    <rect x="458.333" y="334.174" width="83.334" height="83.375" style="fill:rgb(42,22,51);fill-rule:nonzero;"/>
                    <rect x="-41.666" y="417.549" width="83.332" height="83.375" style="fill:rgb(246,241,225);fill-rule:nonzero;"/>
                    <rect x="41.666" y="417.549" width="83.334" height="83.375" style="fill:rgb(42,22,51);fill-rule:nonzero;"/>
                    <rect x="125" y="417.549" width="83.333" height="83.375" style="fill:rgb(246,241,225);fill-rule:nonzero;"/>
                    <rect x="208.333" y="417.549" width="83.334" height="83.375" style="fill:rgb(247,128,119);fill-rule:nonzero;"/>
                    <rect x="291.667" y="417.549" width="83.333" height="83.375" style="fill:rgb(101,187,229);fill-rule:nonzero;"/>
                    <rect x="375" y="417.549" width="83.333" height="83.375" style="fill:rgb(247,128,119);fill-rule:nonzero;"/>
                    <rect x="458.333" y="417.549" width="83.334" height="83.375" style="fill:rgb(246,241,225);fill-rule:nonzero;"/>
                    <path d="M500,334.289C476.988,334.289 458.333,315.634 458.333,292.622L458.333,292.58C458.333,269.568 476.988,250.914 500,250.914C523.012,250.914 541.667,269.568 541.667,292.58L541.667,292.622C541.667,315.634 523.012,334.289 500,334.289Z" style="fill:rgb(247,128,119);fill-rule:nonzero;"/>
                    <path d="M0,84.049C-23.011,84.049 -41.666,65.395 -41.666,42.383L-41.666,42.341C-41.666,19.329 -23.011,0.674 0,0.674C23.011,0.674 41.666,19.329 41.666,42.341L41.666,42.383C41.666,65.395 23.011,84.049 0,84.049Z" style="fill:rgb(42,22,51);fill-rule:nonzero;"/>
                    <path d="M0,250.799C-23.011,250.799 -41.666,232.144 -41.666,209.132L-41.666,209.091C-41.666,186.079 -23.011,167.424 0,167.424C23.011,167.424 41.666,186.079 41.666,209.091L41.666,209.132C41.666,232.144 23.011,250.799 0,250.799Z" style="fill:rgb(246,241,225);fill-rule:nonzero;"/>
                    <path d="M291.67,84.054L291.67,0.674C314.68,0.674 333.33,19.334 333.33,42.344L333.33,42.384C333.33,65.404 314.68,84.054 291.67,84.054Z" style="fill:rgb(246,241,225);fill-rule:nonzero;"/>
                    <path d="M208.31,84.036L291.69,84.036C291.69,107.045 273.03,125.695 250.02,125.695L249.98,125.695C226.96,125.695 208.31,107.045 208.31,84.036Z" style="fill:rgb(247,182,67);fill-rule:nonzero;"/>
                    <path d="M0,63.049C-11.419,63.049 -20.677,53.792 -20.677,42.372L-20.677,42.352C-20.677,30.932 -11.419,21.674 0,21.674C11.419,21.674 20.677,30.932 20.677,42.352L20.677,42.372C20.677,53.792 11.419,63.049 0,63.049Z" style="fill:rgb(246,241,225);fill-rule:nonzero;"/>
                    <path d="M66.583,64.529C66.583,66.922 64.643,68.862 62.25,68.862C59.856,68.862 57.916,66.922 57.916,64.529C57.916,62.135 59.856,60.195 62.25,60.195C64.643,60.195 66.583,62.135 66.583,64.529Z" style="fill:rgb(42,22,51);fill-rule:nonzero;"/>
                    <path d="M89.083,64.529C89.083,66.922 87.143,68.862 84.75,68.862C82.356,68.862 80.416,66.922 80.416,64.529C80.416,62.135 82.356,60.195 84.75,60.195C87.143,60.195 89.083,62.135 89.083,64.529Z" style="fill:rgb(42,22,51);fill-rule:nonzero;"/>
                    <path d="M111.583,64.529C111.583,66.922 109.643,68.862 107.25,68.862C104.857,68.862 102.917,66.922 102.917,64.529C102.917,62.135 104.857,60.195 107.25,60.195C109.643,60.195 111.583,62.135 111.583,64.529Z" style="fill:rgb(42,22,51);fill-rule:nonzero;"/>
                    <path d="M66.583,42.362C66.583,44.755 64.643,46.695 62.25,46.695C59.856,46.695 57.916,44.755 57.916,42.362C57.916,39.969 59.856,38.029 62.25,38.029C64.643,38.029 66.583,39.969 66.583,42.362Z" style="fill:rgb(42,22,51);fill-rule:nonzero;"/>
                    <path d="M89.083,42.362C89.083,44.755 87.143,46.695 84.75,46.695C82.356,46.695 80.416,44.755 80.416,42.362C80.416,39.969 82.356,38.029 84.75,38.029C87.143,38.029 89.083,39.969 89.083,42.362Z" style="fill:rgb(42,22,51);fill-rule:nonzero;"/>
                    <path d="M111.583,42.362C111.583,44.755 109.643,46.695 107.25,46.695C104.857,46.695 102.917,44.755 102.917,42.362C102.917,39.969 104.857,38.029 107.25,38.029C109.643,38.029 111.583,39.969 111.583,42.362Z" style="fill:rgb(42,22,51);fill-rule:nonzero;"/>
                    <path d="M66.583,20.195C66.583,22.589 64.643,24.529 62.25,24.529C59.856,24.529 57.916,22.589 57.916,20.195C57.916,17.802 59.856,15.862 62.25,15.862C64.643,15.862 66.583,17.802 66.583,20.195Z" style="fill:rgb(42,22,51);fill-rule:nonzero;"/>
                    <path d="M89.083,20.195C89.083,22.589 87.143,24.529 84.75,24.529C82.356,24.529 80.416,22.589 80.416,20.195C80.416,17.802 82.356,15.862 84.75,15.862C87.143,15.862 89.083,17.802 89.083,20.195Z" style="fill:rgb(42,22,51);fill-rule:nonzero;"/>
                    <path d="M111.583,20.195C111.583,22.589 109.643,24.529 107.25,24.529C104.857,24.529 102.917,22.589 102.917,20.195C102.917,17.802 104.857,15.862 107.25,15.862C109.643,15.862 111.583,17.802 111.583,20.195Z" style="fill:rgb(42,22,51);fill-rule:nonzero;"/>
                    <path d="M399.917,231.278C399.917,233.671 397.977,235.612 395.583,235.612C393.19,235.612 391.25,233.671 391.25,231.278C391.25,228.885 393.19,226.945 395.583,226.945C397.977,226.945 399.917,228.885 399.917,231.278Z" style="fill:rgb(42,22,51);fill-rule:nonzero;"/>
                    <path d="M422.417,231.278C422.417,233.671 420.477,235.612 418.083,235.612C415.69,235.612 413.75,233.671 413.75,231.278C413.75,228.885 415.69,226.945 418.083,226.945C420.477,226.945 422.417,228.885 422.417,231.278Z" style="fill:rgb(42,22,51);fill-rule:nonzero;"/>
                    <path d="M444.917,231.278C444.917,233.671 442.977,235.612 440.583,235.612C438.19,235.612 436.25,233.671 436.25,231.278C436.25,228.885 438.19,226.945 440.583,226.945C442.977,226.945 444.917,228.885 444.917,231.278Z" style="fill:rgb(42,22,51);fill-rule:nonzero;"/>
                    <path d="M399.917,209.112C399.917,211.505 397.977,213.445 395.583,213.445C393.19,213.445 391.25,211.505 391.25,209.112C391.25,206.718 393.19,204.778 395.583,204.778C397.977,204.778 399.917,206.718 399.917,209.112Z" style="fill:rgb(42,22,51);fill-rule:nonzero;"/>
                    <path d="M422.417,209.112C422.417,211.505 420.477,213.445 418.083,213.445C415.69,213.445 413.75,211.505 413.75,209.112C413.75,206.718 415.69,204.778 418.083,204.778C420.477,204.778 422.417,206.718 422.417,209.112Z" style="fill:rgb(42,22,51);fill-rule:nonzero;"/>
                    <path d="M444.917,209.112C444.917,211.505 442.977,213.445 440.583,213.445C438.19,213.445 436.25,211.505 436.25,209.112C436.25,206.718 438.19,204.778 440.583,204.778C442.977,204.778 444.917,206.718 444.917,209.112Z" style="fill:rgb(42,22,51);fill-rule:nonzero;"/>
                    <path d="M399.917,186.945C399.917,189.338 397.977,191.278 395.583,191.278C393.19,191.278 391.25,189.338 391.25,186.945C391.25,184.552 393.19,182.612 395.583,182.612C397.977,182.612 399.917,184.552 399.917,186.945Z" style="fill:rgb(42,22,51);fill-rule:nonzero;"/>
                    <path d="M422.417,186.945C422.417,189.338 420.477,191.278 418.083,191.278C415.69,191.278 413.75,189.338 413.75,186.945C413.75,184.552 415.69,182.612 418.083,182.612C420.477,182.612 422.417,184.552 422.417,186.945Z" style="fill:rgb(42,22,51);fill-rule:nonzero;"/>
                    <path d="M444.917,186.945C444.917,189.338 442.977,191.278 440.583,191.278C438.19,191.278 436.25,189.338 436.25,186.945C436.25,184.552 438.19,182.612 440.583,182.612C442.977,182.612 444.917,184.552 444.917,186.945Z" style="fill:rgb(42,22,51);fill-rule:nonzero;"/>
                    <path d="M232.417,482.153C232.417,484.546 230.477,486.487 228.083,486.487C225.69,486.487 223.75,484.546 223.75,482.153C223.75,479.76 225.69,477.82 228.083,477.82C230.477,477.82 232.417,479.76 232.417,482.153Z" style="fill:rgb(42,22,51);fill-rule:nonzero;"/>
                    <path d="M254.917,482.153C254.917,484.546 252.977,486.487 250.583,486.487C248.19,486.487 246.25,484.546 246.25,482.153C246.25,479.76 248.19,477.82 250.583,477.82C252.977,477.82 254.917,479.76 254.917,482.153Z" style="fill:rgb(42,22,51);fill-rule:nonzero;"/>
                    <path d="M277.417,482.153C277.417,484.546 275.477,486.487 273.083,486.487C270.69,486.487 268.75,484.546 268.75,482.153C268.75,479.76 270.69,477.82 273.083,477.82C275.477,477.82 277.417,479.76 277.417,482.153Z" style="fill:rgb(42,22,51);fill-rule:nonzero;"/>
                    <path d="M232.417,459.987C232.417,462.38 230.477,464.32 228.083,464.32C225.69,464.32 223.75,462.38 223.75,459.987C223.75,457.593 225.69,455.653 228.083,455.653C230.477,455.653 232.417,457.593 232.417,459.987Z" style="fill:rgb(42,22,51);fill-rule:nonzero;"/>
                    <path d="M254.917,459.987C254.917,462.38 252.977,464.32 250.583,464.32C248.19,464.32 246.25,462.38 246.25,459.987C246.25,457.593 248.19,455.653 250.583,455.653C252.977,455.653 254.917,457.593 254.917,459.987Z" style="fill:rgb(42,22,51);fill-rule:nonzero;"/>
                    <path d="M277.417,459.987C277.417,462.38 275.477,464.32 273.083,464.32C270.69,464.32 268.75,462.38 268.75,459.987C268.75,457.593 270.69,455.653 273.083,455.653C275.477,455.653 277.417,457.593 277.417,459.987Z" style="fill:rgb(42,22,51);fill-rule:nonzero;"/>
                    <path d="M232.417,437.82C232.417,440.213 230.477,442.153 228.083,442.153C225.69,442.153 223.75,440.213 223.75,437.82C223.75,435.427 225.69,433.487 228.083,433.487C230.477,433.487 232.417,435.427 232.417,437.82Z" style="fill:rgb(42,22,51);fill-rule:nonzero;"/>
                    <path d="M254.917,437.82C254.917,440.213 252.977,442.153 250.583,442.153C248.19,442.153 246.25,440.213 246.25,437.82C246.25,435.427 248.19,433.487 250.583,433.487C252.977,433.487 254.917,435.427 254.917,437.82Z" style="fill:rgb(42,22,51);fill-rule:nonzero;"/>
                    <path d="M277.417,437.82C277.417,440.213 275.477,442.153 273.083,442.153C270.69,442.153 268.75,440.213 268.75,437.82C268.75,435.427 270.69,433.487 273.083,433.487C275.477,433.487 277.417,435.427 277.417,437.82Z" style="fill:rgb(42,22,51);fill-rule:nonzero;"/>
                    <rect x="144.511" y="20.195" width="44.311" height="44.334" style="fill:rgb(246,241,225);fill-rule:nonzero;"/>
                    <path d="M291.667,0.683L291.667,0.759L208.39,84.036L208.333,84.036L208.333,0.683L291.667,0.683Z" style="fill:rgb(42,22,51);fill-rule:nonzero;"/>
                    <path d="M250,65.04C237.481,65.04 227.333,54.892 227.333,42.373L227.333,42.351C227.333,29.832 237.481,19.684 250,19.684C262.518,19.684 272.667,29.832 272.667,42.351L272.667,42.373C272.667,54.892 262.518,65.04 250,65.04Z" style="fill:rgb(101,187,229);fill-rule:nonzero;"/>
                    <path d="M416.667,84.049C393.655,84.049 375,65.395 375,42.383L375,42.341C375,19.329 393.655,0.674 416.667,0.674C439.679,0.674 458.333,19.329 458.333,42.341L458.333,42.383C458.333,65.395 439.679,84.049 416.667,84.049Z" style="fill:rgb(246,241,225);fill-rule:nonzero;"/>
                    <path d="M208.333,250.799L125,250.799L125,250.757C125,204.734 162.31,167.424 208.333,167.424L208.333,250.799Z" style="fill:rgb(246,241,225);fill-rule:nonzero;"/>
                    <path d="M291.667,250.799L208.333,250.799L208.333,167.424C254.357,167.424 291.667,204.734 291.667,250.757L291.667,250.799Z" style="fill:rgb(42,22,51);fill-rule:nonzero;"/>
                    <path d="M208.333,334.174C162.31,334.174 125,296.864 125,250.841L125,250.799L208.333,250.799L208.333,334.174Z" style="fill:rgb(101,187,229);fill-rule:nonzero;"/>
                    <path d="M208.333,334.174L208.333,250.799L291.667,250.799L291.667,250.841C291.667,296.864 254.357,334.174 208.333,334.174Z" style="fill:rgb(247,128,119);fill-rule:nonzero;"/>
                    <path d="M375,417.549L375,334.174L458.333,334.174L458.333,334.216C458.333,380.239 421.024,417.549 375,417.549Z" style="fill:rgb(247,128,119);fill-rule:nonzero;"/>
                    <path d="M541.688,167.403L458.312,167.403L458.312,84.07L458.354,84.07C504.378,84.07 541.688,121.379 541.688,167.403Z" style="fill:rgb(247,128,119);fill-rule:nonzero;"/>
                    <path d="M507,167.403L458.312,167.403L458.312,118.74L458.337,118.74C485.213,118.74 507,140.527 507,167.403Z" style="fill:rgb(246,241,225);fill-rule:nonzero;"/>
                    <path d="M208.333,250.799L158.5,250.799L158.5,250.774C158.5,223.252 180.811,200.941 208.333,200.941L208.333,250.799Z" style="fill:rgb(42,22,51);fill-rule:nonzero;"/>
                    <path d="M208.333,297.989L208.333,250.799L255.5,250.799L255.5,250.823C255.5,276.872 234.383,297.989 208.333,297.989Z" style="fill:rgb(246,241,225);fill-rule:nonzero;"/>
                    <path d="M208.333,300.657C180.811,300.657 158.5,278.346 158.5,250.824L158.5,250.799L208.333,250.799L208.333,300.657Z" style="fill:rgb(247,182,67);fill-rule:nonzero;"/>
                    <path d="M-0.007,405.223L-29.361,375.869L0.007,346.5L29.361,375.854L-0.007,405.223Z" style="fill:rgb(246,241,225);fill-rule:nonzero;"/>
                    <path d="M0,229.549C-11.281,229.549 -20.427,220.403 -20.427,209.122L-20.427,209.101C-20.427,197.82 -11.281,188.674 0,188.674C11.281,188.674 20.427,197.82 20.427,209.101L20.427,209.122C20.427,220.403 11.281,229.549 0,229.549Z" style="fill:rgb(247,128,119);fill-rule:nonzero;"/>
                    <path d="M541.667,250.799L458.333,250.799L458.333,167.424L541.667,250.799Z" style="fill:rgb(247,182,67);fill-rule:nonzero;"/>
                    <rect x="0" y="334.174" width="41.666" height="41.688" style="fill:rgb(247,128,119);fill-rule:nonzero;"/>
                    <path d="M250,417.549C226.988,417.549 208.333,398.894 208.333,375.882L208.333,375.841C208.333,352.829 226.988,334.174 250,334.174C273.012,334.174 291.667,352.829 291.667,375.841L291.667,375.882C291.667,398.894 273.012,417.549 250,417.549Z" style="fill:rgb(42,22,51);fill-rule:nonzero;"/>
                    <rect x="416.734" y="250.799" width="41.667" height="41.688" style="fill:rgb(247,182,67);fill-rule:nonzero;"/>
                    <rect x="374.932" y="292.601" width="41.667" height="41.688" style="fill:rgb(42,22,51);fill-rule:nonzero;"/>
                    <path d="M41.666,84.049L-41.666,84.049L-41.666,84.091C-41.666,130.114 -4.357,167.424 41.666,167.424L41.666,84.049Z" style="fill:rgb(42,22,51);fill-rule:nonzero;"/>
                    <path d="M125.021,167.403L125.021,84.07L124.979,84.07C78.955,84.07 41.645,121.379 41.645,167.403L125.021,167.403Z" style="fill:rgb(246,241,225);fill-rule:nonzero;"/>
                    <path d="M166.667,147.903C154.43,147.903 144.511,137.984 144.511,125.748L144.511,125.725C144.511,113.489 154.43,103.57 166.667,103.57C178.903,103.57 188.822,113.489 188.822,125.725L188.822,125.748C188.822,137.984 178.903,147.903 166.667,147.903Z" style="fill:rgb(247,182,67);fill-rule:nonzero;"/>
                    <path d="M375,167.424L291.667,167.424L291.667,167.382C291.667,121.359 328.976,84.049 375,84.049L375,167.424Z" style="fill:rgb(42,22,51);fill-rule:nonzero;"/>
                    <path d="M41.666,334.174L-41.666,250.799L41.666,250.799L41.666,334.174Z" style="fill:rgb(247,128,119);fill-rule:nonzero;"/>
                    <path d="M166.656,417.559L124.969,375.872L166.677,334.164L208.365,375.851L166.656,417.559Z" style="fill:rgb(42,22,51);fill-rule:nonzero;"/>
                    <path d="M166.662,394.22L148.308,375.866L166.671,357.503L185.025,375.857L166.662,394.22Z" style="fill:rgb(246,241,225);fill-rule:nonzero;"/>
                    <path d="M416.667,64.529C404.43,64.529 394.511,54.609 394.511,42.373L394.511,42.351C394.511,30.115 404.43,20.195 416.667,20.195C428.903,20.195 438.822,30.115 438.822,42.351L438.822,42.373C438.822,54.609 428.903,64.529 416.667,64.529Z" style="fill:rgb(42,22,51);fill-rule:nonzero;"/>
                    <path d="M375,417.549L291.667,417.549L291.667,417.507C291.667,371.484 328.976,334.174 375,334.174L375,417.549Z" style="fill:rgb(247,128,119);fill-rule:nonzero;"/>
                    <path d="M125.021,167.403L125.021,122.821L124.998,122.821C100.377,122.821 80.416,142.781 80.416,167.403L125.021,167.403Z" style="fill:rgb(247,128,119);fill-rule:nonzero;"/>
                    <path d="M125,417.549L41.666,417.549L41.666,417.507C41.666,371.484 78.976,334.174 125,334.174L125,417.549Z" style="fill:rgb(247,182,67);fill-rule:nonzero;"/>
                    <path d="M416.657,496.725L379.178,459.246L416.676,421.748L454.155,459.227L416.657,496.725Z" style="fill:rgb(246,241,225);fill-rule:nonzero;"/>
                    <path d="M405.669,470.234C399.599,464.163 399.599,454.321 405.669,448.25L405.68,448.239C411.751,442.168 421.593,442.168 427.664,448.239C433.735,454.31 433.735,464.152 427.664,470.223L427.653,470.234C421.582,476.305 411.74,476.305 405.669,470.234Z" style="fill:rgb(42,22,51);fill-rule:nonzero;"/>
                    <path d="M291.667,500.924L291.667,417.549L375,417.549L291.667,500.924Z" style="fill:rgb(247,128,119);fill-rule:nonzero;"/>
                    <path d="M375,417.549L329.667,417.549L329.667,417.526C329.667,392.489 349.963,372.193 375,372.193L375,417.549Z" style="fill:rgb(42,22,51);fill-rule:nonzero;"/>
                    <path d="M352.33,440.224L352.33,440.264L314.34,478.244L314.33,478.244L314.33,440.224L352.33,440.224Z" style="fill:rgb(246,241,225);fill-rule:nonzero;"/>
                    <path d="M352.33,440.264L352.33,478.244L314.34,478.244L352.33,440.264Z" style="fill:rgb(42,22,51);fill-rule:nonzero;"/>
                    <path d="M102.333,440.224L102.333,440.264L64.343,478.244L64.333,478.244L64.333,440.224L102.333,440.224Z" style="fill:rgb(246,241,225);fill-rule:nonzero;"/>
                    <path d="M102.333,440.264L102.333,478.244L64.343,478.244L102.333,440.264Z" style="fill:rgb(42,22,51);fill-rule:nonzero;"/>
                    <path d="M413.511,84.56L413.511,84.6L375.521,122.58L375.511,122.58L375.511,84.56L413.511,84.56Z" style="fill:rgb(246,241,225);fill-rule:nonzero;"/>
                    <path d="M333.333,314.664C321.091,314.664 311.167,304.74 311.167,292.498L311.167,292.475C311.167,280.233 321.091,270.309 333.333,270.309C345.576,270.309 355.5,280.233 355.5,292.475L355.5,292.498C355.5,304.74 345.576,314.664 333.333,314.664Z" style="fill:rgb(42,22,51);fill-rule:nonzero;"/>
                    <rect x="482.5" y="358.353" width="35" height="35.017" style="fill:rgb(246,241,225);fill-rule:nonzero;"/>
                    <rect x="124.999" y="417.56" width="36.718" height="36.736" style="fill:rgb(42,22,51);fill-rule:nonzero;"/>
                    <rect x="171.703" y="464.264" width="36.718" height="36.736" style="fill:rgb(247,128,119);fill-rule:nonzero;"/>
                    <path d="M541.667,84.049L458.333,84.049L541.667,0.674L541.667,84.049Z" style="fill:rgb(246,241,225);fill-rule:nonzero;"/>
                </g>
            </g>
        </g>
    </g>
</svg>
